<svg xmlns="http://www.w3.org/2000/svg" width="134" height="23" fill="none"><path fill="#fff" d="M.2 1.8h9.4c2.8 0 4.8.3 6 1 1.2.6 1.9 1.8 1.9 3.3v3.7c0 1.2-.5 2.2-1.4 2.9-.8.7-2 1-3.4 1.3l6 8.5H13l-5.5-8.1H5.2v8.1h-5V1.8ZM9.5 11c1.2 0 2-.2 2.4-.5.4-.3.7-.9.7-1.8V7.3c0-.7-.3-1.3-.7-1.5-.5-.3-1.3-.5-2.4-.5H5.2v5.8h4.3Zm19.3 11.7a23.8 23.8 0 0 1-4.3-.4 5 5 0 0 1-1.9-1c-.4-.3-.8-.9-1.1-1.6-.4-.7-.5-1.6-.5-2.6v-4.6c0-1 .1-1.9.5-2.6.3-.8.7-1.4 1.2-1.8.5-.4 1-.7 1.8-1 .7-.2 1.4-.4 2.1-.4a42.3 42.3 0 0 1 4.6 0 9 9 0 0 1 2 .4 5 5 0 0 1 1.8 1c.5.4.9 1 1.2 1.7.4.8.5 1.7.5 2.7v4.6c0 1-.1 1.8-.5 2.5-.3.8-.7 1.3-1.1 1.7a5 5 0 0 1-1.8 1l-2.1.4h-2.4Zm0-2.9c1 0 1.6 0 2-.2.5-.1.8-.3 1-.6.2-.3.2-.8.2-1.3v-5.9c0-.8-.2-1.4-.6-1.8-.5-.3-1.3-.5-2.6-.5-1.2 0-2 .2-2.5.5-.4.4-.7 1-.7 1.8v5.9c0 .5.1 1 .3 1.3.2.3.5.5 1 .6.4.2 1 .2 2 .2ZM48 23a22.4 22.4 0 0 1-5.3-.7c-.5-.2-1-.6-1.4-1-.9-.7-1.3-2-1.3-3.7v-5.1c0-1.5.3-2.6 1-3.6.2-.3.5-.6 1-.9l1.4-.7 1.5-.3 1.7-.2h1.7c1.2 0 2.8.2 4.7.6v3c-2.2-.4-3.8-.7-5-.7-2.2 0-3.3.7-3.3 2.2v5.7c0 1.6 1.2 2.4 3.6 2.4 1.2 0 2.8-.2 5-.7v3.1c-2 .4-3.7.5-5.3.5ZM55.8 0h4.7v22.4h-4.7V.1Zm4.9 13.7 5-6.8h5.4l-5.4 6.8 5.8 8.7h-5.2l-5.6-8.7Zm19.3 9c-2 0-4.4-.1-7.4-.5v-3.8c3.7.5 6.1.8 7.5.8 2.7 0 4.1-.7 4.1-2.1v-1.4c0-.7-.2-1.2-.6-1.6-.4-.3-1-.5-2.1-.5h-2.4c-4.6 0-6.9-1.8-6.9-5.4V6.7c0-1.8.8-3.1 2.3-4 1.5-.8 3.9-1.3 7.2-1.3 1.7 0 3.9.2 6.5.5v3.7C85 5.2 82.7 5 81.5 5a9 9 0 0 0-3.4.4c-.6.3-.9.8-.9 1.4v1.5c0 1 1 1.6 2.8 1.6h2.5c2.3 0 4 .5 5.1 1.3 1 1 1.6 2.2 1.6 4v1.4c0 2.5-.9 4.2-2.6 5-.9.5-1.9.8-2.9 1-1 .2-2.3.2-3.7.2Zm20.2 0h-2l-1.6-.4a4 4 0 0 1-1.4-.8c-.4-.4-.7-.8-1-1.4-.2-.7-.3-1.4-.3-2.2v-8h-3.1V7h3V2.6h4.8V7h4.2v3h-4.2v7.2c0 .8 0 1.3.2 1.7 0 .4.3.6.7.8.4.2 1 .2 1.7.2l1.6-.1v2.9l-2.6.1Zm9.7 0c-1.5 0-2.5 0-3.3-.3-.7-.3-1.2-.8-1.5-1.5a9 9 0 0 1-.4-3.1c0-1.2.2-2.2.5-3 .3-.6.8-1.1 1.5-1.4a7 7 0 0 1 2.8-.5h5.3v-1a3 3 0 0 0-.3-1.5c-.2-.4-.5-.6-1-.7l-2.1-.2c-1.4 0-3.2.1-5.5.4V7a47.8 47.8 0 0 1 10.5.2c1.1.3 1.9.8 2.4 1.5.4.7.7 1.8.7 3.2v10.6h-4.6v-1.4a3 3 0 0 1-1.5 1.3c-.6.3-1.8.4-3.5.4Zm1.8-2.9h2l.6-.3c.2 0 .3-.2.4-.4l.1-.6v-3h-3.2l-1.5.1c-.3.1-.5.3-.6.6-.2.3-.2.8-.2 1.5s0 1.2.2 1.5c0 .2.3.4.6.5l1.6.1ZM123.6 7h4.4v2.8c0-.5.2-1 .6-1.5a4.7 4.7 0 0 1 3.5-1.6h1.6v3.9h-1.6c-1.3 0-2.3.2-3 .6-.5.4-.8 1-.8 2v9.3h-4.7V7Z"/></svg>