<svg xmlns="http://www.w3.org/2000/svg" width="179" height="179" fill="none"><path fill="#fff" d="m105 12-1 4a3 3 0 0 1-2 3h-3a28 28 0 0 1-8-1v-2a29 29 0 0 0 7 1h3v-1l1-3c0-2-1-2-4-3h-4V8l4 1 4-2V4l-3-2a50 50 0 0 0-6 0V0h6l5 2 1 2v4a2 2 0 0 1-1 1l-2 1h1l1 1 1 1ZM123 26l-3-1v-6l-8-3-4 5-2-1 13-15 3 1 1 20Zm-3-9V8h-1l-5 7 6 2ZM140 38l-16-11 12-15 2 2-10 13 5 4 10-13 3 1-11 14 6 4 10-14 2 2-14 19-2-2 3-4ZM146 46l-2-3 16-11 1 3-13 8h19l2 3-16 10-1-2 13-9-19 1ZM175 67l-2-6-16 6-1-3 16-6-2-6h2l5 14-2 1ZM162 88l-1-3 5-3-1-8-6-1v-3l20 5v3l-17 10Zm6-7 8-4-9-2 1 6ZM171 114l-8-2-3-1-1-2a12 12 0 0 1 0-6c1-5 3-7 7-6l8 2c4 0 5 3 4 8s-3 8-7 7Zm-8-5 9 2c2 1 4-1 4-4l1-2-1-2v-1l-2-1-9-2c-2 0-3 1-4 5-1 3 0 5 2 5ZM166 134l2-6-15-7 2-2 15 7 2-6 2 1-6 14-2-1ZM157 148l-8 9-12-12-1 1-5-4 2-2 3 3 9-9-3-3 1-2 5 5-1 1 2 5 6 6 2 2Zm-8 5 5-4-1-1-5-6-3-5-6 6 10 10ZM126 166l-5-8v-2l1-3a12 12 0 0 1 4-3c4-3 7-3 9 0l5 8c1 3 0 6-4 8-5 3-8 3-10 0Zm-2-9 4 7c1 2 4 3 7 1l1-1 1-1 1-2-1-2-4-7c-1-2-3-2-6-1-3 2-4 4-3 6ZM109 168l1 8-2 1-2-8h-2v2l-2 4-1 3-3 1h-1l-1-2h2l1-1 1-2 1-3 1-2 1-1-5-2-6-5 3-1 6 5 3 2h2l-2-9h3l1 8 2-1 2-2 4-7 3-1-4 7-3 5h1l1 1 3 3 1 1h3v2h-4l-2-2-3-3-2-1h-1Z"/><path fill="#fff" d="m86 178-11-1 1-16h-2l1-7h2v5l13 1v-5l3 1-1 6h-2l-2 5-2 8v3Zm-9-3 7 1v-1l1-8 2-5-8-1-2 14ZM70 157l3 1-8 6 3 2a3 3 0 0 1 0 3l-1 3-2 2-5-1-6-2 6-17h3l-3 8 2 1 8-6Zm-5 14 1-3a2 2 0 0 0-1-2l-2-1-4-1-2 6 4 2 4-1ZM48 146l3 3-12 14-2-2 10-12-18 6-3-2 12-15 2 2-10 12 18-6ZM24 118l2 2-4 9h9l2 3-12-1-4 10-2-2 4-8-9-1-2-3 12 1 4-10ZM6 105l9-2h3l2 1 1 2 1 3c1 5 0 8-3 9l-8 2c-4 1-6-1-8-6-1-5 0-8 3-9Zm10 0-9 3c-2 0-3 2-2 6l1 1 1 2 1 1h2l8-3c3 0 3-2 2-6-1-3-2-4-4-4ZM15 97H0V83h19v3H2v9l14-1 2 1 1 3v2h-2v-3h-2ZM10 61l8 2 3 1 1 3v2l-1 3c-1 5-3 7-7 6l-8-2c-4-1-5-4-3-9 1-5 3-7 7-6Zm8 5-9-3c-2 0-4 1-5 5v3l1 2h1l9 3c2 0 4-1 5-5 0-3 0-5-2-5ZM9 51l5-11 15 8 1-1 6 3-1 2-4-2-7 11 5 2-2 2-6-3 1-1-3-4-8-5-2-1Zm6-7-3 5 1 1 7 4 4 4 4-7-13-7ZM44 34l-2 2-5-2-6 6 3 5-2 2-8-18 2-2 18 7Zm-9-1-8-3h-1l4 8 5-5Z"/><path fill="#FFFDFD" d="m59 7 4 2 4 4v5l-3 3h-3l-4-4v-5l1-4a1 1 0 0 1 1-1Z"/></svg>