<svg xmlns="http://www.w3.org/2000/svg" width="322" height="15" fill="none"><path fill="#000D33" d="M30 8c-1-2-2-3-4-3l-4-1-6 1-5 2H6a21 21 0 0 1-4 0H1v4h1V7H1l5 1 5-1 5-1 6-2 4 1 4 4V8z"/><path fill="#000D33" d="m30 4-4-3-4-1-6 1-5 2-5 1a21 21 0 0 1-4-1H1v4h1V3H1v1h10l5-2 6-1 4 1 4 3V4zm0 5 4-4 4-1 6 2 5 1 5 1 5-1h-1v4h1V7H49l-4-2-7-1-4 1-4 3v1z"/><path fill="#000D33" d="m30 5 4-3 4-1 6 1 5 2h10V3h-1v4h1V3l-5 1-5-1-4-2-7-1-4 1-4 3v1zm0 3V5v3zm21 3-6-2-5-1-4 1a5 5 0 0 0-1 2 6 6 0 0 0-1-2l-4-1-3 1a6 6 0 0 0-1 2 5 5 0 0 0-1-2l-5-1-4 1-7 2H0v2h60v-2h-9zM71 1h8v1h-6v3h4l1 1 1 1v1l-1 3-3 1h-4V1zm2 6v3h4V7h-4zm13-1-1 2-2 4h-2V4h2v6-2l3-4h2v8h-2V6zm7 6-2-1-1-3V5a7 7 0 0 1 0-1l1-2a4 4 0 0 1 1 0l1-1a9 9 0 0 1 1 0h1a9 9 0 0 0 2 0v1h-1l-2 1h-1a2 2 0 0 0-1 1l-1 1a3 3 0 0 1 1-1h3l1 1 1 1v4l-1 1-1 1a5 5 0 0 1-2 0zm0-6h-1v4h3V6h-2zm5 4a1 1 0 0 0 1 0V4h6v8h-1V6h-3v4l-1 1a2 2 0 0 1-1 1 3 3 0 0 1-1 0v-2zm15-4-1 2-2 4h-3V4h2v6l1-2 2-4h3v8h-2V6zm7 6-3-1-1-3 1-2a3 3 0 0 1 0-1l2-1h1l3 1 1 3v2a3 3 0 0 1-1 1l-1 1a5 5 0 0 1-2 0zm0-2h2V6h-3l-1 2 1 2h1zm4-6h7v2h-2v6h-2V6h-3V4zm11 8a4 4 0 0 1-1 0 3 3 0 0 1-1-1 4 4 0 0 1-1-1V6a3 3 0 0 1 2-2 4 4 0 0 1 1 0l3 1 1 3v1h-5v1h3V9h2v1l-1 1a4 4 0 0 1-1 1h-2zm0-7-1 1v1h3V6l-2-1zm8 4v3h-2V4h2v3l2-3h3l-3 4 3 4h-2l-3-3zm8 3-2-1-1-1V8h1l1-1h3V6l-1-1-1 1h-2a2 2 0 0 1 0-1l3-1 2 1 1 1v6h-1l-1-1-1 1h-1zm0-2h2V8h-1l-1 1-1 1h1zm13 2a5 5 0 0 1-1 0 3 3 0 0 1-1-1 4 4 0 0 1-1-1 5 5 0 0 1 0-2V6a3 3 0 0 1 1-1l1-1a4 4 0 0 1 1 0l3 1 1 1h-2a1 1 0 0 0-1 0h-1a1 1 0 0 0-1 0v1a3 3 0 0 0 0 1v2a2 2 0 0 0 1 0h1l1-1h2l-1 2-3 1zm9 0-3-1-1-3V6a3 3 0 0 1 2-2h2l2 1 1 3v2a3 3 0 0 1-1 1 3 3 0 0 1-1 1 5 5 0 0 1-1 0zm0-2h1V6h-3v4h2zm5-6h5l1 1v2l-1 1h1l1 2v1h-1l-1 1h-5V4zm2 5v1h2l1-1h-3zm0-4v2h2V6l-1-1h-1zm10 7-2-1v4h-2V4h2v1l1-1a4 4 0 0 1 3 0l1 1v1l1 2-1 2v1a3 3 0 0 1-1 1 3 3 0 0 1-2 0zm0-2h1l1-2-1-2h-2l-1 2 1 2h1zm9 2a4 4 0 0 1-2 0 3 3 0 0 1-1-1 4 4 0 0 1-1-1 5 5 0 0 1 0-2V6a3 3 0 0 1 1-1l1-1a4 4 0 0 1 2 0l2 1 1 3v1h-5v1h3V9h2v1l-1 1a3 3 0 0 1-1 1h-1zm0-7-2 1v1h3V6l-1-1zm7 3V6v6h-2V4h3l1 4 2-4h3v8h-2V6l-1 2-1 2h-2l-1-2zm12 4a4 4 0 0 1-1 0 3 3 0 0 1-2-1 4 4 0 0 1 0-1l-1-2 1-2a3 3 0 0 1 2-2 4 4 0 0 1 1 0l3 1 1 3v1h-6l1 1h2l1-1h2l-1 1v1a4 4 0 0 1-1 1h-2zm0-7-1 1-1 1h4l-1-1-1-1zm11 4h-4v3h-2V4h2v3h4V4h2v8h-2V9zm9 0h-3v3h-2V4h2v3h3V4h2v8h-2V9zm4-5h2v2h1l3 1 1 2-1 2-3 1h-3V4zm7 0h2v8h-2V4zm-5 4v2h2l1-1-1-1h-2zm12 1-2 3h-2l3-4-2-4h2l1 2 2-2h2l-3 4 3 4h-2l-2-3zm11 3-2-1V8h1l1-1h3V6l-2-1v1h-3a2 2 0 0 1 1-1l2-1 3 1 1 1v6h-2v-1a3 3 0 0 1-1 1h-2zm1-2h1l1-1V8h-2l-1 1v1h1zm6-6h4l1 1h1v2l-1 1h1v3l-1 1h-5V4zm1 5v1h3V9h-3zm0-4v2h3V6l-1-1h-2zm6-1h7v2h-3v6h-2V6h-2V4zm11 8-3-1-1-3V6a3 3 0 0 1 2-2h2l3 1 1 3v2a3 3 0 0 1-1 1 3 3 0 0 1-1 1 5 5 0 0 1-2 0zm0-2h1l1-2-1-2h-2l-1 2 1 2h1zm10 2-3-1v4h-1V4h1v1l1-1a4 4 0 0 1 3 0l1 1 1 1v4l-1 1a3 3 0 0 1-1 1 3 3 0 0 1-1 0zm-1-2h1l1-2-1-2h-2l-1 2 1 2h1zm9 2-3-1-1-3V6l1-1 1-1h2l3 1 1 3-1 2v1a3 3 0 0 1-2 1h-1zm0-2h1l1-2-1-2h-3v4h2zm5-6h5l1 1h1v1l-1 1v1h1v3h-1l-1 1h-5V4zm2 5v1h3V9h-3zm0-4v2h2l1-1h-1l-1-1h-1z"/></svg>