<svg xmlns="http://www.w3.org/2000/svg" width="145" height="19" fill="none"><path fill="#fff" d="M8.7 18.4a8 8 0 0 0 4.3-1.1 7 7 0 0 0 2.7-3 9.6 9.6 0 0 0 .9-5.3h-6v2h3.3a6 6 0 0 1-1.5 3.7c-.9.9-2 1.3-3.5 1.3-1.8 0-3.2-.7-4.1-1.9a7.6 7.6 0 0 1-1.4-4.7c0-1.4.2-2.5.6-3.5a5 5 0 0 1 1.8-2.3c.8-.6 1.9-.9 3-.9 1.3 0 2.3.4 3 1 .8.6 1.4 1.4 1.7 2.5l2.6-.5a7 7 0 0 0-2.5-4A7.7 7.7 0 0 0 8.7.5a8 8 0 0 0-4.1 1 7.4 7.4 0 0 0-2.9 3.2c-.6 1.3-1 2.9-1 4.8 0 1.8.4 3.5 1 4.8a7.5 7.5 0 0 0 7 4.2ZM19 18h2.6v-6.5c0-.8 0-1.5.3-2.2.3-.6.7-1.1 1.3-1.5.4-.3.9-.5 1.4-.5H26V5a5 5 0 0 0-1.8 0 4 4 0 0 0-1.7.8c-.5.3-1 .7-1.2 1.3v-2H19V18Zm14.8.4c1.3 0 2.4-.4 3.4-1s1.8-1.5 2.3-2.7l-2.4-.8c-.7 1.4-1.8 2.1-3.4 2.1-1 0-2-.3-2.6-1-.6-.6-1-1.6-1-2.8h9.6c0-1.5-.1-2.9-.6-4a5.5 5.5 0 0 0-5.4-3.5c-1.3 0-2.4.3-3.3.8-1 .6-1.7 1.4-2.3 2.4a8 8 0 0 0-.7 3.7c0 1.4.2 2.5.8 3.6a6 6 0 0 0 2.2 2.3c1 .6 2.1.9 3.4.9Zm0-11.5c2 0 3 1.1 3.3 3.4h-7c.2-1.1.5-2 1.2-2.5.6-.6 1.4-.9 2.5-.9ZM48 18.4c1.3 0 2.4-.4 3.5-1 1-.6 1.7-1.5 2.3-2.7l-2.5-.8c-.7 1.4-1.8 2.1-3.4 2.1-1 0-2-.3-2.5-1-.7-.6-1-1.6-1.1-2.8H54c.1-1.5 0-2.9-.5-4A5.5 5.5 0 0 0 48 4.7c-1.2 0-2.4.3-3.3.8-1 .6-1.7 1.4-2.2 2.4a8 8 0 0 0-.8 3.7c0 1.4.2 2.5.8 3.6a6 6 0 0 0 2.2 2.3c1 .6 2.2.9 3.4.9Zm0-11.5c2 0 3 1.1 3.4 3.4h-7c0-1.1.5-2 1-2.5.7-.6 1.5-.9 2.6-.9ZM56.3 18H59v-6.7c0-1 .1-1.9.4-2.5a3 3 0 0 1 2.9-1.7 3 3 0 0 1 1.7.4l1 1 .4 1.6.2 1.5V18H68v-7.2a10.5 10.5 0 0 0-.5-3c-.2-.6-.5-1-.9-1.5A4 4 0 0 0 65.1 5c-.6-.3-1.3-.4-2.2-.4-1 0-1.8.2-2.5.5S59 6 58.6 6.6V5h-2.3v13ZM76 18h2.6v-6.7c0-1 .1-1.9.4-2.5a3 3 0 0 1 2.8-1.7 3 3 0 0 1 1.7.4c.5.3.8.6 1 1 .3.5.4 1 .5 1.6l.1 1.5V18h2.6v-7.2a10.5 10.5 0 0 0-.5-3c-.2-.6-.5-1-1-1.5A4 4 0 0 0 84.8 5c-.6-.3-1.4-.4-2.3-.4-.9 0-1.7.2-2.5.5-.7.3-1.3.8-1.7 1.4V.7h-2.3V18Zm20.4.4c1.3 0 2.4-.3 3.4-.9 1-.6 1.7-1.4 2.2-2.4.5-1 .8-2.2.8-3.6 0-1.3-.3-2.5-.8-3.5s-1.3-1.9-2.2-2.4c-1-.6-2-1-3.4-1-1.2 0-2.4.4-3.3 1-1 .5-1.7 1.3-2.2 2.3-.6 1-.8 2.3-.8 3.6 0 1.3.2 2.5.8 3.6a6 6 0 0 0 5.5 3.3Zm0-2.4c-1.2 0-2.1-.4-2.7-1.2-.6-.8-1-2-1-3.3 0-1.3.3-2.4 1-3.2C94 7.5 95 7 96.2 7c1.2 0 2.2.4 2.8 1.3.6.8 1 1.8 1 3.2 0 1.3-.4 2.4-1 3.2-.6.9-1.5 1.3-2.8 1.3Zm14 2.3c.8 0 1.7-.1 2.4-.5.7-.3 1.3-.8 1.8-1.3V18h2.2V5h-2.5v6.8c0 1-.2 1.8-.5 2.4-.3.7-.7 1-1.2 1.4-.5.2-1 .4-1.6.4a3 3 0 0 1-1.7-.4c-.4-.3-.7-.7-1-1.2a5 5 0 0 1-.5-1.4V5H105v7.2a10.5 10.5 0 0 0 .5 3c.2.6.5 1.1.9 1.6.3.5.8.8 1.4 1.1.7.3 1.4.4 2.3.4Zm14.7 0a6 6 0 0 0 3.9-1c1-.8 1.4-1.8 1.4-3 0-.7-.1-1.3-.4-1.8-.3-.4-.8-.8-1.4-1.2l-2.6-.9-2.3-.7a3 3 0 0 1-1-.5 1 1 0 0 1-.3-.8c0-.5.2-.8.7-1.1.5-.3 1-.4 1.8-.4s1.5.2 2 .6c.5.3.8.8.9 1.5l2.5-.5c-.1-1.2-.7-2-1.7-2.8-1-.7-2.2-1-3.7-1s-2.7.3-3.6 1c-1 .8-1.4 1.7-1.4 2.9 0 .6.1 1.1.4 1.6.3.4.7.8 1.4 1.1.6.4 1.5.7 2.6 1l2.3.7c.5.1.8.3 1 .5l.2.8c0 .6-.2 1-.7 1.4a3 3 0 0 1-1.8.4c-.9 0-1.6-.2-2.2-.5-.5-.4-1-1-1-1.6l-2.6.4c.2 1.2.8 2.2 1.8 2.9 1 .7 2.3 1 3.8 1Zm13.7 0a5.8 5.8 0 0 0 5.7-3.6L142 14c-.7 1.4-1.8 2.1-3.4 2.1-1.1 0-2-.3-2.6-1-.6-.6-1-1.6-1-2.8h9.6c0-1.5-.1-2.9-.6-4a5.5 5.5 0 0 0-5.4-3.5c-1.3 0-2.4.3-3.3.8-1 .6-1.7 1.4-2.3 2.4a8 8 0 0 0-.8 3.7c0 1.4.3 2.5.8 3.6a6 6 0 0 0 2.3 2.3c1 .6 2.1.9 3.4.9Zm0-11.4c2 0 3 1.1 3.3 3.4h-7c.1-1.1.5-2 1.1-2.5.7-.6 1.5-.9 2.6-.9Z"/></svg>