<svg width="150" height="24" viewBox="0 0 150 24" fill="none" xmlns="http://www.w3.org/2000/svg"><path d="M29 19.513V4h10.357v3.437h-6.115V9.87h5.227v3.437h-5.227v2.768h6.362v3.437H29zm16.026 0L40.983 7.58h4.242l1.331 5.203c.296 1.193.592 2.434.888 3.723h.099c.296-1.289.592-2.53.888-3.723L49.76 7.58h4.044L49.91 19.513h-4.883zm15.984.287a7.563 7.563 0 01-2.515-.406 6.12 6.12 0 01-2.022-1.217 5.917 5.917 0 01-1.331-1.981c-.33-.78-.494-1.663-.494-2.65 0-.97.165-1.837.493-2.6.346-.78.79-1.44 1.332-1.982a5.888 5.888 0 014.094-1.67c.904 0 1.693.15 2.367.453a4.648 4.648 0 011.677 1.241 5.13 5.13 0 01.986 1.838c.23.7.346 1.448.346 2.243 0 .366-.025.708-.074 1.026a6.403 6.403 0 01-.099.693h-7.028c.197.716.55 1.217 1.06 1.503.51.27 1.11.406 1.8.406.428 0 .839-.056 1.233-.167.411-.128.839-.31 1.283-.55l1.38 2.435a7.787 7.787 0 01-2.243 1.05c-.806.223-1.554.334-2.244.334zm-2.317-7.685h3.65c0-.462-.124-.86-.37-1.194-.23-.35-.666-.525-1.308-.525-.476 0-.896.135-1.257.406-.346.27-.584.708-.715 1.313zm9.577 7.398V7.58h3.452l.296 2.052h.099c.46-.811 1.002-1.4 1.627-1.766.641-.382 1.266-.572 1.874-.572.379 0 .683.023.913.071.23.032.435.088.616.167l-.69 3.532c-.23-.047-.452-.087-.666-.119a3.085 3.085 0 00-.715-.072c-.444 0-.913.152-1.406.454-.477.286-.863.803-1.159 1.551v6.635H68.27zM80.402 24c-.428 0-.781-.024-1.06-.072a5.29 5.29 0 01-.814-.167l.74-3.102c.114.032.238.063.37.095.147.032.287.048.418.048.576 0 1.003-.111 1.283-.334.296-.207.51-.494.64-.86l.149-.524L77.442 7.58h4.242l1.48 4.582c.18.557.337 1.114.468 1.67.132.542.271 1.115.42 1.72h.098a78.17 78.17 0 00.37-1.695 74.61 74.61 0 01.42-1.695l1.232-4.582h4.044l-4.143 11.742a16.212 16.212 0 01-1.01 2.1 5.309 5.309 0 01-1.16 1.456c-.444.382-.953.66-1.529.836-.558.19-1.216.286-1.972.286zm11.885-4.487V4h4.34l3.552 6.921 1.529 3.485h.098a106.22 106.22 0 00-.172-1.36 40.816 40.816 0 01-.173-1.504c-.049-.525-.099-1.042-.148-1.552a23.995 23.995 0 01-.049-1.503V4h4.044v15.513h-4.34l-3.551-6.945-1.53-3.46h-.098c.099.89.214 1.861.346 2.911a24.33 24.33 0 01.197 3.007v4.487h-4.044zm21.945.287a7.559 7.559 0 01-2.515-.406 6.126 6.126 0 01-2.023-1.217 5.918 5.918 0 01-1.331-1.981c-.329-.78-.493-1.663-.493-2.65 0-.97.164-1.837.493-2.6.345-.78.789-1.44 1.331-1.982a5.889 5.889 0 014.094-1.67c.904 0 1.693.15 2.367.453a4.65 4.65 0 011.677 1.241c.444.525.773 1.138.987 1.838.23.7.345 1.448.345 2.243 0 .366-.025.708-.074 1.026a6.353 6.353 0 01-.099.693h-7.028c.197.716.551 1.217 1.061 1.503.509.27 1.109.406 1.8.406a4.52 4.52 0 001.233-.167 7.22 7.22 0 001.282-.55l1.381 2.435a7.786 7.786 0 01-2.244 1.05c-.806.223-1.554.334-2.244.334zm-2.318-7.685h3.649c0-.462-.123-.86-.369-1.194-.231-.35-.666-.525-1.307-.525-.477 0-.896.135-1.258.406-.345.27-.584.708-.715 1.313zm11.457 7.398L120.412 7.58h4.192l.937 5.012c.099.604.181 1.21.247 1.814.065.588.148 1.193.246 1.814h.099c.098-.621.197-1.233.296-1.838.115-.62.246-1.217.394-1.79l1.135-5.012h3.6l1.184 5.012a23.8 23.8 0 01.37 1.814c.115.588.238 1.193.369 1.814h.099c.099-.621.181-1.226.247-1.814.065-.605.148-1.21.246-1.814l.937-5.012h3.897l-2.812 11.933h-4.932l-.887-4.153-.296-1.67a61.583 61.583 0 01-.296-1.838h-.099l-.271 1.838a60.464 60.464 0 01-.271 1.67l-.839 4.153h-4.833zm21.352.287c-.789 0-1.628-.152-2.516-.454-.871-.302-1.627-.708-2.268-1.217l1.874-2.53c1.118.796 2.121 1.193 3.008 1.193.444 0 .757-.055.937-.167a.613.613 0 00.296-.549.512.512 0 00-.197-.405 1.716 1.716 0 00-.542-.335 5.375 5.375 0 00-.74-.31c-.28-.095-.576-.207-.888-.334-.362-.143-.732-.31-1.11-.501a4.952 4.952 0 01-.986-.74 3.977 3.977 0 01-.74-.978 3.03 3.03 0 01-.271-1.313c0-.589.115-1.122.345-1.6a3.672 3.672 0 011.011-1.216 4.551 4.551 0 011.529-.764 6.641 6.641 0 011.998-.286c1.019 0 1.89.167 2.614.5A9.81 9.81 0 01150 8.87l-1.874 2.434a6.483 6.483 0 00-1.307-.74 3.196 3.196 0 00-1.208-.262c-.724 0-1.086.223-1.086.668 0 .16.058.294.173.406.132.111.304.214.518.31.214.095.46.19.74.286.279.08.575.175.888.287.361.127.731.286 1.109.477s.715.43 1.011.716c.313.27.559.605.74 1.002.197.382.296.844.296 1.385a3.68 3.68 0 01-.345 1.575 3.74 3.74 0 01-1.011 1.265c-.444.35-.995.628-1.653.835-.657.191-1.413.286-2.268.286z" fill="#282B31"/><path fill-rule="evenodd" clip-rule="evenodd" d="M17.867 19.582c-.207-.52-.5-.974-.756-1.361-.13-.195-.263-.393-.38-.597-.466-.81-.305-1.14.452-2.408l.122-.208c.613-1.033.647-2.024.678-2.898.015-.43.029-.834.112-1.214.193-.878 2.05-1.112 3.2-1.25A9.47 9.47 0 0121.6 12c0 3.083-1.466 5.824-3.733 7.582zM12 2.4c.74 0 1.453.091 2.144.25a3.145 3.145 0 01-.928 1.176c-.262.206-.556.378-.848.552-.78.465-1.665.993-2.22 2.008-.739 1.356-.739 2.741-.739 3.963 0 1.626-.053 2.587-1.137 3.435-1.643 1.288-4.157.57-5.712-.085A9.685 9.685 0 012.4 12c0-5.293 4.307-9.6 9.6-9.6zM12 0C5.383 0 0 5.383 0 12c0 6.616 5.383 12 12 12s12-5.384 12-12c0-6.617-5.383-12-12-12z" fill="#4447E2"/></svg>