<svg width="16" height="16" viewBox="0 0 16 16" fill="none" xmlns="http://www.w3.org/2000/svg"><path d="M13 15H3c-.552 0-1-.43-1-.959 0-1.585 1.026-3.005 2.575-3.561l.308-.11a9.242 9.242 0 016.234 0l.308.11c1.549.556 2.575 1.976 2.575 3.56 0 .53-.448.959-1 .959zM6.475 7.539a3.465 3.465 0 003.05 0 3.22 3.22 0 001.738-2.176l.056-.25a3.291 3.291 0 00-.628-2.749l-.09-.115A3.297 3.297 0 008 1a3.297 3.297 0 00-2.601 1.25l-.09.114a3.291 3.291 0 00-.628 2.748l.056.25A3.22 3.22 0 006.475 7.54z" stroke="#282B31" stroke-linecap="square" stroke-linejoin="round"/></svg>